<svg xmlns="http://www.w3.org/2000/svg" width="794" height="1123" viewBox="0 0 794 1123" fill="none">
<path d="M242.416 426.392C266.297 426.425 276.41 443.052 287.147 460.923L375.068 611.692C379.212 619.216 383.3 628.311 383.175 636.827C382.851 659.005 354.06 667.122 336.832 667.973C324.223 668.594 311.764 665.637 300.549 660.596L293.547 669.611C297.628 687.003 313.73 708.127 335.857 707.969C374.287 707.692 394.471 672.545 409.92 643.923L438.539 590.901L355.466 448.443C347.793 435.7 360.389 426.435 373.775 426.354L376.828 414.549H245.481L242.416 426.392ZM516.249 445.165C522.546 432.654 535.192 426.452 548.226 426.372L551.285 414.549H456.849L453.788 426.378C469.767 426.457 491.308 432.661 492.743 445.165H516.249Z" fill="url(#paint0_linear_10_18)"/>
<defs>
<linearGradient id="paint0_linear_10_18" x1="347.346" y1="414.549" x2="347.346" y2="713.948" gradientUnits="userSpaceOnUse">
<stop stop-color="#E5097F"/>
<stop offset="0.478431" stop-color="#E31E24"/>
<stop offset="1" stop-color="#FFED00"/>
</linearGradient>
</defs>
</svg>